IKResults
version=1
nRows=15
nColumns=42
inDegrees=yes

Units are S.I. units (second, meters, Newtons, ...)
Angles are in degrees.

endheader
time	pelvis_tilt	pelvis_list	pelvis_rotation	pelvis_tx	pelvis_ty	pelvis_tz	hip_flexion_r	hip_adduction_r	hip_rotation_r	knee_angle_r	knee_adduction_r	knee_angle_r_beta	ankle_angle_r	subtalar_angle_r	mtp_angle_r	hip_flexion_l	hip_adduction_l	hip_rotation_l	knee_angle_l	knee_adduction_l	knee_angle_l_beta	ankle_angle_l	subtalar_angle_l	mtp_angle_l	lumbar_extension	lumbar_bending	lumbar_rotation	arm_flex_r	arm_add_r	arm_rot_r	elbow_flex_r	pro_sup_r	wrist_flex_r	wrist_dev_r	arm_flex_l	arm_add_l	arm_rot_l	elbow_flex_l	pro_sup_l	wrist_flex_l	wrist_dev_l
     44.91300000	      0.02088425	      4.50730941	     -0.34810983	      0.85128632	      0.94112887	     -0.05475810	     26.96653639	    -10.21983032	     -3.89524751	     16.74804011	      6.47602164	      0.29230844	      4.54192000	     -6.65208257	      3.75323959	     -6.81187912	      3.77379809	     -0.67877311	     18.26885888	      5.09547410	      0.31885174	     15.86280385	     -6.69821192	     -4.46942786	    -22.60738124	     -4.98283438	     -6.38030816	    -22.00341802	    -12.22939617	     22.09222192	    116.93434077	     87.53716931	      0.00000000	      0.00000000	      3.11654723	    -17.81105441	     42.56619487	    145.68213663	     88.20567707	      0.00000000	      0.00000000
     44.92000000	      0.38365713	      4.38039113	     -0.25383256	      0.85217350	      0.94070866	     -0.05371635	     26.37979196	     -9.98599952	     -3.66256188	     17.16693792	      6.47602164	      0.29961959	      3.75042892	     -7.34254902	      3.94369372	     -7.25479773	      3.48666307	     -0.87518768	     19.16266500	      5.09547410	      0.33445160	     15.99435691	     -6.71362373	     -4.67471957	    -22.92047947	     -4.79498197	     -6.26779423	    -21.68798472	    -12.40106707	     22.49144550	    117.58636624	     87.61907838	      0.00000000	      0.00000000	      2.53369133	    -17.64897578	     42.37073830	    145.24511460	     88.17460759	      0.00000000	      0.00000000
     44.92700000	      1.03652432	      3.80012770	     -0.07737203	      0.85350358	      0.94104525	     -0.05288312	     25.13165946	     -9.32032972	     -3.59814953	     17.00957846	      6.47602164	      0.29687315	      2.88848277	     -8.10993605	      4.30544958	     -8.06900618	      2.66359362	     -1.07854409	     19.98250410	      5.09547410	      0.34876049	     16.28914065	     -6.13677722	     -5.40164012	    -23.57252911	     -4.03590588	     -6.20629470	    -21.27567655	    -12.87421935	     23.02512792	    118.43180129	     87.56898821	      0.00000000	      0.00000000	      1.70553495	    -17.36054821	     41.98079995	    144.85236366	     88.17705194	      0.00000000	      0.00000000
     44.93300000	      1.94618899	      3.37698524	      0.02294457	      0.85467228	      0.94166597	     -0.05163940	     23.75896122	     -8.79310402	     -3.52587729	     17.11273815	      6.47602164	      0.29867362	      2.29888065	     -8.40010346	      4.86571528	     -9.15756900	      1.95370727	     -1.52047880	     20.75126936	      5.09547410	      0.36217797	     15.99159373	     -5.81679012	     -7.32133731	    -24.51510178	     -3.52779449	     -5.94594010	    -20.88614898	    -13.05085940	     23.22686055	    119.19909916	     87.61221277	      0.00000000	      0.00000000	      1.07587447	    -17.22059072	     41.84513636	    144.39453316	     88.14873755	      0.00000000	      0.00000000
     44.94000000	      2.29171898	      3.25239070	      0.09519679	      0.85563687	      0.94139019	     -0.05064117	     23.28548603	     -8.60860902	     -3.29237302	     17.64478826	      6.47602164	      0.30795965	      1.58554370	     -8.53426765	      5.03023676	     -9.45072767	      1.65504567	     -1.69645311	     21.86322931	      5.09547410	      0.38158534	     15.99968396	     -5.81297310	     -7.58308024	    -24.78743225	     -3.32284993	     -5.77145344	    -20.52088121	    -13.28276373	     23.55781053	    119.70649269	     87.69959896	      0.00000000	      0.00000000	      0.53989516	    -16.96290141	     41.46215564	    143.77567997	     88.09215563	      0.00000000	      0.00000000
     44.94700000	      2.64319883	      2.88780615	      0.42726034	      0.85690925	      0.94123459	     -0.04924212	     22.62645093	     -8.21073247	     -3.36692487	     18.00035000	      6.47602164	      0.31416537	      0.64427681	     -8.73536363	      5.35093980	     -9.66755810	      0.92083121	     -1.88410380	     23.11649287	      5.09547410	      0.40345891	     16.12839328	     -5.32360112	     -8.26915501	    -25.02515913	     -2.85009193	     -5.81604951	    -20.11330646	    -13.52312025	     24.19097828	    120.56026337	     87.68069822	      0.00000000	      0.00000000	     -0.26036669	    -16.74338347	     41.00997862	    143.19830156	     88.07960884	      0.00000000	      0.00000000
     44.95300000	      3.03909347	      2.87498054	      0.48053680	      0.85805982	      0.94116403	     -0.04834716	     22.16911432	     -8.20509026	     -3.33889227	     18.73639076	      6.47602164	      0.32701171	     -0.25124497	     -8.82482572	      5.58547422	     -9.99119675	      0.68325247	     -2.36089840	     24.27723467	      5.09547410	      0.42371768	     15.80725507	     -5.16971041	     -8.51403246	    -25.31544194	     -2.77114144	     -5.61642560	    -19.72998380	    -13.63822454	     24.39879409	    120.92745843	     87.76600224	      0.00000000	      0.00000000	     -0.89845371	    -16.56373104	     40.76545223	    142.56359342	     87.97987449	      0.00000000	      0.00000000
     44.96000000	      3.41198084	      2.72098958	      0.54005787	      0.85917329	      0.94100072	     -0.04668637	     21.74196383	     -7.98354075	     -3.32186187	     19.49623387	      6.47602164	      0.34027347	     -0.78562822	     -8.98619936	      5.76545013	    -10.11168616	      0.20718805	     -2.82853239	     25.75601716	      5.09547410	      0.44952730	     15.61075202	     -4.95870879	     -8.90312281	    -25.59894972	     -2.59034342	     -5.37829197	    -19.32158446	    -13.78663046	     24.82722405	    121.67593958	     87.87634732	      0.00000000	      0.00000000	     -1.60575057	    -16.42195343	     40.37408792	    141.86021058	     87.96300599	      0.00000000	      0.00000000
     44.96700000	      3.83239362	      1.89304041	      0.35158537	      0.86064652	      0.94090851	     -0.04485316	     21.11234544	     -6.92971652	     -3.08388109	     20.07985712	      6.47602164	      0.35045962	     -0.51656876	     -9.11654106	      8.14413463	    -10.27720613	     -1.12128487	     -4.11648990	     27.37183573	      5.09547410	      0.47772866	     14.83645753	     -4.05825632	    -14.56910745	    -25.83903967	     -1.74395926	     -4.75775321	    -18.96719550	    -14.39649659	     25.39778140	    122.80605837	     87.77574783	      0.00000000	      0.00000000	     -2.52919339	    -15.98931670	     39.75048398	    141.12640827	     87.98237695	      0.00000000	      0.00000000
     44.97300000	      3.80380095	      1.58772068	      0.33229921	      0.86170384	      0.94030135	     -0.04301348	     21.19283826	     -6.48811281	     -2.95355821	     21.05137209	      6.47602164	      0.36741575	     -0.22367231	     -9.16005047	      7.95007245	     -9.73985420	     -1.85101576	     -4.78370294	     29.29745460	      5.09547410	      0.51133705	     14.60300585	     -3.58794380	    -15.29031448	    -25.63157398	     -1.45663204	     -4.42034576	    -18.57663668	    -14.64588338	     25.87665116	    123.51779985	     87.79397768	      0.00000000	      0.00000000	     -3.35492038	    -15.86132803	     39.33641102	    140.25755806	     87.95772257	      0.00000000	      0.00000000
     44.98000000	      3.77743645	      1.07815751	      0.25624697	      0.86280167	      0.93971138	     -0.04094615	     21.25822009	     -5.78833429	     -2.82546047	     22.08827487	      6.47602164	      0.38551312	      0.58573689	     -9.16688717	      7.57959910	     -9.13819155	     -2.88030457	     -5.63440792	     31.39340449	      5.09547410	      0.54791827	     14.27485482	     -2.94114197	    -16.25250720	    -25.39934240	     -0.98705242	     -3.89489933	    -18.22635795	    -14.90652366	     26.31361651	    124.38984532	     87.82736016	      0.00000000	      0.00000000	     -4.12443987	    -15.56578477	     38.85485751	    139.35876641	     87.89590063	      0.00000000	      0.00000000
     44.98700000	      4.13537877	      0.85216262	      0.28899260	      0.86366227	      0.94012826	     -0.03910388	     20.86074630	     -5.45898883	     -2.86533455	     23.09703585	      6.47602164	      0.40311932	      1.28634433	     -9.16129591	      7.28756443	     -8.96959604	     -3.56765028	     -6.14185440	     33.25450478	      5.09547410	      0.58040060	     13.40120793	     -2.89164182	    -16.42843838	    -25.65624238	     -0.84019677	     -3.51222715	    -17.71302362	    -15.01920312	     26.61984689	    124.96721264	     87.94570181	      0.00000000	      0.00000000	     -4.80066434	    -15.41593450	     38.47856516	    138.55116905	     87.79675474	      0.00000000	      0.00000000
     44.99300000	      3.73983757	     -0.03759855	      0.30898626	      0.86486573	      0.93938343	     -0.03709472	     21.21455399	     -4.37689716	     -2.92149214	     24.00439977	      6.47602164	      0.41895581	      1.99426495	     -9.20684651	      7.22670142	     -7.72822816	     -5.19629446	     -7.06745693	     35.78529938	      5.09547410	      0.62457130	     12.90932459	     -1.80364508	    -19.08533050	    -24.94977097	      0.07011462	     -2.99040582	    -17.35968616	    -15.45917028	     27.16266955	    125.87975647	     87.89826942	      0.00000000	      0.00000000	     -5.89419037	    -14.97699932	     37.85353192	    137.54408319	     87.84786610	      0.00000000	      0.00000000
     45.00000000	      3.92810866	     -0.61929583	      0.18695191	      0.86597978	      0.93969544	     -0.03490915	     20.91030820	     -3.57203647	     -2.82765940	     24.84510328	      6.47602164	      0.43362886	      2.77295595	     -9.21034650	      7.10747527	     -7.28653522	     -6.36463974	     -7.73112091	     37.89302149	      5.09547410	      0.66135799	     11.98056570	     -1.71739448	    -19.70533018	    -24.97431674	      0.58292970	     -2.39294340	    -16.93787456	    -15.78946983	     27.67561775	    126.87195066	     87.95649203	      0.00000000	      0.00000000	     -6.76883196	    -14.68134046	     37.37489545	    136.77414969	     87.83237549	      0.00000000	      0.00000000
     45.00700000	      4.23289573	     -1.53621814	      0.17535842	      0.86724782	      0.94051546	     -0.03273838	     20.24632553	     -2.42423117	     -2.83198006	     25.28950326	      6.47602164	      0.44138510	      3.40724480	     -9.24642670	      8.04611525	     -6.87737897	     -8.04270514	     -8.51065619	     40.12224192	      5.09547410	      0.70026522	     10.62785898	     -1.06441798	    -22.07145031	    -25.09990453	      1.46507842	     -1.76788822	    -16.44485616	    -16.10979062	     28.04391709	    127.69399429	     87.92848614	      0.00000000	      0.00000000	     -7.63270525	    -14.32401853	     36.82636579	    135.90675417	     87.79490413	      0.00000000	      0.00000000
